<?xml version="1.0" encoding="UTF-8"?><svg id="Capa_1" xmlns="http://www.w3.org/2000/svg" width="48.5" height="49.7" viewBox="0 0 48.5 49.7"><path d="m48.4,22.7s0,0,0,0c0,0,0,0,0,0l-16.3.2v-12.6c0-.2,0-.3,0-.5v13.3l-.8-.7c0,0-.1-.2-.2-.2-.2-.1-.5.3-.7.5v-.2c0,0-1,1.6-1,1.6l-1.2-4.6c0-.2-.2-.3-.3-.3-.3,0-.5,0-.6.3l-1.7,5.7-2-8.9c0-.2-.2-.3-.3-.4-.3,0-.5,0-.6.3l-2,7.2-1.1-3.6c0-.1-.1-.2-.2-.3-.2-.1-.5,0-.7.2l-.4.8-1,1.9h-.8s0-12.8,0-12.8c0,0,0,0,0,0,0,.2,0,.3,0,.5v12.4L0,23c0,.4,0,.9,0,1.5v1.5s0,0,0,0c0-.3,0-.6,0-.9l16.3.2v5.8c0,.8,0,1.5,0,2.2,0,0,0,0,0,0v-8.7h1.1c.2,0,.3,0,.4-.2h0s.3-.5.3-.5l.7-1.4,1.2,4.1c0,.2.2.3.3.3.3,0,.5,0,.6-.3l1.4-5.1.5-1.9,2,8.8c0,.2.2.3.3.4.3,0,.5,0,.6-.3l1.7-5.9,1.1,4.1c0,.1.1.2.2.3.2.1.5,0,.7-.2l.6-1.1v-.3l.5.2.6-1s.7.7.7.7v8.6c0,0,0,.1,0,.2,0-.6,0-1.3,0-1.8v-7s16.3,0,16.3,0h0s0,0,0,0c0-.9,0-1.9,0-2.6Z" fill="#fff" stroke-width="0"/><path d="m18.2,33.4c0,0-.2,0-.3,0,0,0,.2,0,.3,0Z" fill="#fff" stroke-width="0"/><path d="m16.3,10.3c0-.2,0-.3,0-.5,0-.9,0-2.1,1.6-2.1.9,0,11.8,0,12.5,0,1.1,0,1.6.9,1.6,1.9v.3c0,.2,0,.3,0,.5v12.6l16.3-.2s0,0,0,0C47.7,10.1,37.1,0,24.2,0S.7,10.2,0,23h0s16.3-.2,16.3-.2v-12.4Z" fill="#8fdfa1" stroke-width="0"/><path d="m30.5,7.7c-.7,0-11.6,0-12.5,0-1.5,0-1.6,1.2-1.6,2.1,0,0,0,0,0,0v12.8h.8s1-1.9,1-1.9v-10.5h12.1v12.4c.2-.2.5-.6.8-.5,0,0,.2.1.2.2l.8.7v-13.6c0-.9-.5-1.8-1.6-1.9Zm-3.6,1.5h-5.3v-.3h5.3v.3Z" fill="#fff" stroke-width="0"/><path d="m17.9,33.4c.1,0,.2,0,.3,0,1.6.2,3.4.6,5.1,1,0-.1-.1-.3-.1-.5,0-.6.5-1,1-1s1,.5,1,1-.2.6-.4.8c.3,0,.7.1,1,.2.8.2,1.7.3,2.4.6.1,0,.3.2.4.2h2c1,0,1.3-.8,1.4-1.7,0,0,0-.1,0-.2v-8.6s-.7-.7-.7-.7l-.6,1-.5-.2v7h-12.1v-8.4l-.3.5h0c0,.2-.3.3-.4.3h-1.1s0,8.7,0,8.7c.2,0,.4,0,.6,0,.3,0,.6,0,.9.1Z" fill="#fff" stroke-width="0"/><path d="m30.3,32.2v-6.7l-.6,1.1c-.1.2-.4.3-.7.2-.1,0-.2-.2-.2-.3l-1.1-4.1-1.7,5.9c0,.3-.4.4-.6.3-.2,0-.3-.2-.3-.4l-2-8.8-.5,1.9-1.4,5.1c0,.3-.3.4-.6.3-.2,0-.3-.2-.3-.3l-1.2-4.1-.7,1.4v8.4h12.1Z" fill="#70c9a6" stroke-width="0"/><path d="m18.2,10.3v10.5l.4-.8c.1-.2.4-.3.7-.2.1,0,.2.2.2.3l1.1,3.6,2-7.2c0-.3.3-.4.6-.3.2,0,.3.2.3.4l2,8.9,1.7-5.7c0-.3.4-.4.6-.3.2,0,.3.2.3.3l1.2,4.6.9-1.6v-12.2h-12.1Z" fill="#70c9a6" stroke-width="0"/><rect x="21.6" y="8.9" width="5.3" height=".3" fill="#0c606e" stroke-width="0"/><path d="m15.4,43.5c4.2-.2,6.7,0,10.9-.2,1.5,0,1.8,0,2.9-1,2.1-1.8,5.7-4.5,7.9-6.5.6-.5,2-2.1,1.1-3s-2-.2-2.7.3c-1.8,1.5-5.2,4.1-7,5.5-.7.5-2,.5-2.8.5-2.6,0-4.7-.2-7.3-.3-.7,0-1,0-1-.3,0-.5.4-.5,1.1-.4,2.5.1,3.8,0,6.3.3.7,0,3.3.5,3.7-.6.5-1.2-1-1.7-1.9-1.9,0,0,0,0,0,0-.4,0-.8-.2-1.3-.2-2.7-.5-5.8-1.2-8.5-1.5-.1,0-.2,0-.3,0,0,0-.2,0-.3,0-3-.2-6.4,1.5-8.7,3.5-.6.5-1.2,1-1.7,1.6-.4.5-.8,1-1.1,1.1,1.7,2.3,3.9,4.2,6.3,5.8.2-.1.3-.2.5-.4.4-.3,2.1-2,3.7-2Z" fill="#fff" stroke-width="0"/><path d="m48.5,25.3h0s-16.3,0-16.3,0v7c0,.5,0,1.2,0,1.8-.1.9-.4,1.7-1.4,1.7h-2c-.1,0-.3-.2-.4-.2-.7-.3-1.6-.5-2.4-.6-.3,0-.7-.1-1-.2.2-.2.4-.5.4-.8,0-.6-.5-1-1-1s-1,.5-1,1,0,.3.1.5c-1.7-.4-3.6-.7-5.1-1,0,0-.2,0-.3,0-.3,0-.6,0-.9-.1-.2,0-.4,0-.6,0,0,0,0,0,0,0,0-.7,0-1.4,0-2.2v-5.8L0,25.1c0,.3,0,.6,0,.9.1,5,1.7,9.7,4.5,13.5,0,.1.2.3.3.4,0,0,.1.1.2.2.3-.1.7-.6,1.1-1.1.5-.6,1.2-1.1,1.7-1.6,2.3-2,5.6-3.7,8.7-3.5,0,0,.2,0,.3,0,.1,0,.2,0,.3,0,2.7.3,5.8,1,8.5,1.5.4,0,.9.2,1.3.2,0,0,0,0,0,0,.8.2,2.3.7,1.9,1.9-.4,1.1-3,.7-3.7.6-2.5-.2-3.8-.1-6.3-.3-.7,0-1.2,0-1.1.4s.3.3,1,.3c2.6.2,4.7.3,7.3.3.8,0,2.1,0,2.8-.5,1.9-1.4,5.3-4,7-5.5.6-.5,1.8-1.2,2.7-.3s-.5,2.4-1.1,3c-2.3,2-5.9,4.8-7.9,6.5-1.2,1-1.4.9-2.9,1-4.2.2-6.7,0-10.9.2-1.6,0-3.3,1.7-3.7,2-.2.1-.3.3-.5.4,0,0,.1,0,.2.1.2.1.4.2.6.4,3.6,2.1,7.8,3.3,12.3,3.3,13.4,0,24.3-10.9,24.2-24.4h0Z" fill="#0c606e" stroke-width="0"/></svg>